<?xml version="1.0" standalone="no"?><!DOCTYPE svg PUBLIC "-//W3C//DTD SVG 1.1//EN" "http://www.w3.org/Graphics/SVG/1.1/DTD/svg11.dtd"><svg t="1490671112326" class="icon" style="" viewBox="0 0 1024 1024" version="1.1" xmlns="http://www.w3.org/2000/svg" p-id="4700" xmlns:xlink="http://www.w3.org/1999/xlink" width="200" height="200"><defs><style type="text/css"></style></defs><path d="M527.246927 204.247427c113.891476 0 227.88528 0.716299 341.776756-0.306985 60.373738-0.511642 88.923354 25.479764 88.309383 87.490756-1.432597 139.473569 0.409313 278.947137-0.818627 418.420706-0.716299 78.178875-31.926451 107.240132-111.333267 107.34246-218.573399 0.306985-437.044469 0.306985-655.617867-0.204657C111.896073 816.78505 64.722694 770.225642 64.313381 693.377036c-0.716299-125.55691-0.511642-251.11382-0.204657-376.568402C64.313381 235.355251 94.397921 204.963725 178.511842 204.145098c116.245028-1.125612 232.490057-0.306985 348.735085-0.306985C527.246927 203.940442 527.246927 204.145098 527.246927 204.247427zM518.037374 762.857999c109.286699 0 218.675727-1.330269 327.962426 0.61397 41.44299 0.716299 58.224843-12.381733 57.303887-55.666633-2.251224-104.579594-0.306985-209.363845-1.330269-314.045768-0.102328-17.088838 9.41421-40.624363-12.484061-49.833916-19.954032-8.390926-32.64275 10.130509-47.07105 21.693614-96.904967 77.360248-195.651844 152.5716-291.021885 231.773758-31.517138 26.196063-51.573499 25.275107-82.27201-0.102328-97.109623-80.532427-197.084441-157.483362-295.012691-237.094834-13.098031-10.64215-25.377436-23.740182-41.647647-19.135405-21.079644 6.037374-13.20036 27.219346-13.302688 42.05696-0.716299 99.974818 1.330269 200.051964-0.716299 300.026781-1.125612 56.48526 23.535525 80.327771 78.690517 79.816129C303.966424 762.141701 411.001899 762.755671 518.037374 762.857999zM139.524733 262.676926c19.851704 18.316778 25.991406 24.763466 32.949735 30.289198 60.88538 48.298991 121.259119 97.211952 182.860797 144.38533C515.172179 559.838513 515.581493 559.838513 672.041571 435.202558c66.411112-52.903767 131.491956-107.34246 211.205756-172.62796C627.835715 262.676926 392.68512 262.676926 139.524733 262.676926z" p-id="4701" fill="#cdcdcd"></path></svg>