<?xml version="1.0" standalone="no"?><!DOCTYPE svg PUBLIC "-//W3C//DTD SVG 1.1//EN" "http://www.w3.org/Graphics/SVG/1.1/DTD/svg11.dtd"><svg t="1494556263140" class="icon" style="" viewBox="0 0 1024 1024" version="1.1" xmlns="http://www.w3.org/2000/svg" p-id="9019" xmlns:xlink="http://www.w3.org/1999/xlink" width="128" height="128"><defs><style type="text/css"></style></defs><path d="M371.088 66.176l0 130.352 0 43.744 43.568 4.048c350.384 32.576 548.976 131.712 559.152 279.136 8.336 120.848-112.224 270.352-275.344 367.632 79.904-95.568 150.288-215.552 113.776-319.472-36.768-104.688-164.368-162.608-390.096-177.04l-51.056-3.264 0 51.168 0 82.816L52.976 295.744 371.088 66.176M392.976 0c-7.744 0-16.768 3.296-26.336 10.208L23.424 257.872c-28.848 20.832-28.848 54.912 0 75.744l343.2 247.664c9.584 6.928 18.592 10.208 26.336 10.208 15.6 0 26.128-13.28 26.128-37.056l0-111.952C1175.44 490.832 486.704 1024 500.096 1024c0.048 0 0.128-0.016 0.208-0.032 450.752-105.856 941.008-732.4-81.2-827.44L419.104 37.056C419.088 13.296 408.56 0 392.976 0L392.976 0z" p-id="9020" fill="#1296db"></path></svg>